<?xml version="1.0" encoding="utf-8"?>
<!-- Generator: Adobe Illustrator 19.0.0, SVG Export Plug-In . SVG Version: 6.00 Build 0)  -->
<svg version="1.1" id="Layer_1" xmlns="http://www.w3.org/2000/svg" xmlns:xlink="http://www.w3.org/1999/xlink" x="0px" y="0px"
	 viewBox="0 0 212 70" style="enable-background:new 0 0 212 70;" xml:space="preserve">
<style type="text/css">
	.st0{fill:#B43E97;}
	.st1{fill:#FFFFFF;}
	.st2{fill:#872F71;}
	.st3{fill:#31002E;}
</style>
<g id="XMLID_43_">
	<path id="XMLID_63_" class="st0" d="M74.8,4.7H81h6.2L105.3,56h-5.7H94l-3.5-10.4H71.1L67.7,56h-5.5h-5.5L74.8,4.7z M74.1,36.7
		h13.6l-6.8-20.6h0L74.1,36.7z"/>
	<g id="XMLID_53_">
		<path id="XMLID_61_" class="st1" d="M113,45.1l-7.7-29.2h2.1h2.1l5.2,23.1c0.1,0.4,0.2,0.8,0.2,1.1c0.1,0.3,0.1,0.6,0.1,0.7h0
			c0-0.2,0-0.4,0.1-0.8c0.1-0.4,0.1-0.7,0.2-1.1l6.2-23.1h2.2h2.2l6.1,23c0.1,0.4,0.2,0.7,0.3,1.1c0.1,0.4,0.1,0.6,0.1,0.8h0
			c0-0.1,0-0.4,0.1-0.8c0.1-0.4,0.1-0.7,0.2-1.1l5.3-23h2.1h2.1l-7.7,29.2h-2.1h-2.1l-6.3-22.6c-0.1-0.4-0.2-0.8-0.3-1.1
			c-0.1-0.4-0.1-0.6-0.1-0.8h0c0,0.2,0,0.4-0.1,0.8c-0.1,0.4-0.2,0.7-0.3,1.1l-6.2,22.6h-2.1H113z"/>
		<path id="XMLID_58_" class="st1" d="M151.1,15.8h2.2h2.3l10.5,29.2h-2.1h-2.1l-3-8.5h-11.7l-3.1,8.5h-2H140L151.1,15.8z
			 M148.4,33.1h9.2l-4.5-13h0L148.4,33.1z"/>
		<path id="XMLID_56_" class="st1" d="M169.7,45.1V15.8h2h2v25.7h14.8v1.8v1.7H169.7z"/>
		<path id="XMLID_54_" class="st1" d="M192.4,45.1V15.8h2h2v25.7h14.8v1.8v1.7H192.4z"/>
	</g>
	<path id="XMLID_50_" class="st0" d="M51.8,61.9l-5.2-10.6c4.4-3.3,7.8-7.9,9.6-13.5c4.9-14.8-3.1-30.8-18-35.8
		C23.4-3,7.4,5.1,2.4,19.9c-4.9,14.8,3.1,30.8,18,35.7C26,57.5,31.8,57.5,37,56l5.2,10.6c1.5,2.4,4.5,3.6,7.1,2.4
		C52,67.7,53.1,64.5,51.8,61.9L51.8,61.9z M23.7,45.6c-9.3-3.1-14.3-13.1-11.2-22.3C15.6,14,25.6,9,34.9,12
		c9.2,3.1,14.3,13.1,11.2,22.3C43,43.6,33,48.6,23.7,45.6L23.7,45.6z"/>
	<path id="XMLID_49_" class="st2" d="M23.7,45.6c-9.3-3.1-14.3-13.1-11.2-22.3C15.6,14,25.6,9,34.9,12c9.2,3.1,14.3,13.1,11.2,22.3
		C43,43.6,33,48.6,23.7,45.6L23.7,45.6z"/>
	<circle id="XMLID_46_" class="st1" cx="29.3" cy="28.4" r="13"/>
	<path id="XMLID_45_" class="st3" d="M27.3,34.8c-3.3-1.1-5.1-4.7-4-8c1.1-3.3,4.7-5.1,8-4c3.3,1.1,5.1,4.7,4,8
		C34.2,34.1,30.6,35.9,27.3,34.8L27.3,34.8z"/>
	<path id="XMLID_44_" class="st1" d="M30.1,29.1c-1-0.3-1.5-1.4-1.2-2.4c0.3-1,1.4-1.5,2.4-1.2c1,0.3,1.5,1.4,1.2,2.4
		C32.1,28.9,31.1,29.4,30.1,29.1L30.1,29.1z"/>
</g>
</svg>
